<?xml version="1.0" encoding="utf-8"?>
<!-- Generator: Adobe Illustrator 19.2.1, SVG Export Plug-In . SVG Version: 6.00 Build 0)  -->
<svg version="1.1" id="Layer_1" xmlns="http://www.w3.org/2000/svg" xmlns:xlink="http://www.w3.org/1999/xlink" x="0px" y="0px"
	 viewBox="0 0 1159.6 356.7" style="enable-background:new 0 0 1159.6 356.7;" xml:space="preserve">
<style type="text/css">
	.st0{fill:#FDFDFD;}
	.st1{fill:#DB310D;}
</style>
<path class="st0" d="M306.1,278.1c0,24.3,0,48.6,0,73c0,1.8-0.5,2.2-2.2,2.2c-8.3-0.1-16.6-0.1-24.9,0c-1.6,0-1.9-0.5-1.8-2
	c0.1-3.7,0-7.4,0-11.1c0-0.4,0-1.1-0.2-1.3c-0.5-0.4-0.9,0.2-1.3,0.5c-8.7,5.9-17.8,10.7-28.1,12.6c-25.7,4.6-48.1-2-66.6-21.3
	c-15.1-15.7-21.6-34.8-20.8-56.8c0.9-22.2,10.5-39.9,26.6-54.1c11.3-9.9,24.6-15.1,39.3-16.6c18-1.8,34.4,3,49.2,13.5
	c0.4,0.3,0.8,1.1,1.4,0.7c0.5-0.4,0.3-1.1,0.3-1.6c0-3.8,0-7.5,0-11.3c0-1.3,0.4-1.6,1.6-1.6c8.5,0,17,0.1,25.4,0
	c1.6,0,1.9,0.5,1.9,2C306.1,229.2,306.1,253.7,306.1,278.1z M277.3,278c0.6-26.1-22.8-45.3-44.2-45.5c-23-0.2-43.9,20.9-44.1,45.9
	c-0.2,25,21.7,45.5,45.3,45.3C255.5,323.5,277.7,303.2,277.3,278z"/>
<path class="st0" d="M0,282.8c-0.3-43.3,28.4-72.6,59-78.4c30-5.7,54.5,4.2,73.8,28c2.2,2.7,2.2,2.8-0.6,4.9
	c-6.5,4.9-13.1,9.8-19.6,14.8c-1.2,0.9-1.9,0.9-2.8-0.4c-6.9-9.5-15.8-16.1-27.4-18.2c-17.8-3.3-32.4,2.5-43.5,16.8
	c-14.8,19-13.8,46.7,9,64.4c14.4,11.1,38.8,13.4,56.1-3.5c2.3-2.2,4.5-4.5,6.3-7.1c0.7-0.9,1.1-1.1,2.1-0.3
	c7.1,5.5,14.2,10.9,21.4,16.2c0.9,0.7,0.9,1.2,0.3,2c-2.4,3.6-5.5,6.6-8.5,9.6c-11.6,11.7-25.6,18.9-41.7,21
	c-24.3,3.1-45.3-4.2-62.8-21.8C6.8,316.3,0.4,298.4,0,282.8z"/>
<path class="st0" d="M553.4,292.9c-18.1,0-36.3,0-54.5,0c-2,0-2,0-1.3,2c9,23.2,34.1,34.5,56.4,25.4c5.2-2.1,9.7-5.2,13.9-9
	c0.9-0.9,1.5-1.1,2.5,0c6,6.3,12,12.5,18.1,18.7c0.9,0.9,1.1,1.4,0,2.4c-11.4,10.8-24.6,18.1-40,20.1c-23.6,3.1-44.4-3.6-61.6-20.9
	c-11.3-11.4-18.4-25.2-20.8-41.2c-3.6-23.4,2.3-44.2,17.4-62.2c11.5-13.6,25.8-21.9,43-24.5c24.9-3.8,46.5,3.4,64,22.1
	c14,15,21.3,33,20.8,54.1c-0.1,3.7-0.6,7.4-1,11.1c-0.2,1.5-0.6,2-2.1,1.9c-8.9-0.1-17.8,0-26.8,0
	C572.1,292.9,562.8,292.9,553.4,292.9z M538.1,263.2L538.1,263.2c12.9,0,25.8,0,38.7,0c3.2,0,2.7-0.1,1.7-2.5
	c-7.8-20.2-29-32.1-50.1-26.9c-14.6,3.6-24.7,13.3-30.6,27.5c-0.7,1.8-0.4,2,1.3,2C512,263.2,525.1,263.2,538.1,263.2z"/>
<path class="st1" d="M580.3,1.1c8-0.7,15.1,1.6,21.6,6.3c5.8,4.3,9.7,10.2,12.4,17c2.6,6.4,4.3,13,5.4,19.8
	c2.2,13.1,2.4,26.2,1.7,39.5c-0.4,7.4-0.7,14.8-1.1,22.3c-0.1,1.4,0.2,2,1.7,1.6c2.1-0.5,4.1-1.1,6.1-1.9c8.7-3.6,17.7-5.9,27.1-6.9
	c7.7-0.9,15.4-0.9,23,0.3c10.7,1.7,20.4,5.9,29.2,12.5c9,6.6,16,15.1,22.3,24.3c3.8,5.5,7.7,11,10.1,17.3c2.6,6.7,2.8,13.6,0.4,20.4
	c-0.7,2.1-1.9,4-4.1,4.9c-1.2,0.5-0.9,1.4-0.9,2.2c0.1,4.4-0.2,8.7-1.7,12.8c-2.5,6.7-8.8,8.3-14.5,4.3c-4.2-3-7.2-7.1-9.6-11.6
	c-4.9-9.1-11.3-16.9-19.2-23.5c-5-4.2-10.5-7.6-16.7-9.5c-1.6-0.5-3.3-0.9-5-1c-8.1-0.3-16.1,0.2-24.2,1.3
	c-6.3,0.9-12.4,2.2-18.4,4.2c-6.5,2.3-12.7,5.2-18.4,9.2c-4.1,2.8-8,5.8-12.3,8.3c-3.6,2.2-7.6,3.5-11.8,3.7
	c-1.6,0.1-0.9-1.1-0.8-1.7c1-5,1.3-10.1,1.8-15.1c0.5-5.1,0.5-10.1,0.5-15.2c0-11.9,0.2-23.7,0.8-35.6c0.4-8,1.6-15.9,1.6-23.9
	c0-6.4-0.1-12.8-1.7-19c-1.3-4.7-2.9-9.3-6.6-12.6c-2-1.8-4.3-2.8-7-3.1c-6.6-0.6-12.1,2.3-17.6,5.4c-8.4,4.6-13.1,12.8-18.1,20.5
	c-3.4,5.3-6.3,10.9-8,17.1c-1.7,6.3-3.1,12.7-4.3,19.1c-0.8,4.3-1.7,8.5-2.4,12.8c-1,5.4-1.8,10.9-2.9,16.3
	c-1.3,6.4-2.6,12.8-4.2,19.2c-1.3,5.1-4.1,9.5-5.4,14.4c-1.1,4.6-2.3,9.2-4.1,13.5c-1.6,3.9-3.7,7.5-7.5,9.4
	c-5.7,3-12.9,0.1-15.9-5.9c-2.7-5.5-2.5-11.4-2-17.2c1-12.3,3.3-24.5,5.9-36.5c1.6-7.2,3.2-14.3,5-21.4c2-7.9,4-15.8,6.3-23.6
	c4.3-14.4,8.8-28.8,17.4-41.2c3.9-5.7,6.6-12.2,10.6-17.9c7.7-11.1,16.4-21.3,28.3-28.1c5.7-3.2,11.8-5.6,18.2-6.9
	C574.3,1.1,577.3,1.2,580.3,1.1z M610.7,92.8c0.2-16.5-0.9-31.6-6.2-46.1c-2.5-6.8-5.9-12.9-11.5-17.6c-8-6.8-17.5-7.8-27.2-6.6
	c-12.9,1.6-23.9,7.7-33.3,16.8c-13,12.5-21.9,27.7-27.5,45.1c-7.7,23.9-13.8,48.3-18.3,73.1c-1.6,8.9-3,17.8-3,27
	c0,2.4,0.3,4.8,1.3,7c1.3,3,3.3,5,6.6,5.4c3.3,0.4,5.4-1.4,7.1-3.9c0.5-0.7,0.9-1.4,1.3-2.2c3.5-7,5-14.6,6.5-22.2
	c2.9-14.9,5.1-30,8.5-44.9c2.4-10.7,5.4-21.2,9.4-31.5c3.8-9.4,9-18,14.8-26.2c6.9-9.7,16.1-15.3,27.1-17.8
	c6.9-1.6,13.1,0.4,17.7,6.1c3.1,3.8,4.8,8.4,5.9,13.2c2.2,10,2.2,20.2,1.3,30.4c-1.1,11.2-1.7,22.5-1.9,33.8
	c-0.1,13.1,0.2,26.3-1.5,39.4c-0.3,2.5-0.2,2.5,2,1.6c0.6-0.2,1.1-0.5,1.7-0.8c4-2.1,7.6-4.9,11.3-7.5c7.7-5.4,16-9.7,25-12.3
	c12.1-3.6,24.6-4.6,37.1-4.7c6-0.1,11.6,1.5,16.9,4.3c12.4,6.6,21.9,16.6,29.3,28.7c2.6,4.2,4.7,8.8,8.5,12.1
	c1.9,1.7,3.9,3.6,6.7,2.6c2.7-1,3.3-3.8,3.8-6.3c1.5-7.1,0.3-13.9-3.3-20.1c-4.4-7.7-9.3-15.1-14.9-22.1
	c-9.5-11.7-20.9-20.5-35.3-24.6c-8.7-2.5-17.5-3.2-26.5-2.4c-8.5,0.7-16.9,2.1-25,5.2c-4.6,1.8-9.1,3.8-14.1,4.5
	c-1.7,0.2-2.2,0-2-1.9C609.9,115.4,610.8,103.6,610.7,92.8z"/>
<path class="st0" d="M402.5,293c0,19.4,0,38.7,0,58.1c0,1.7-0.3,2.2-2,2.2c-8.4-0.1-16.8-0.1-25.2,0c-1.7,0-1.9-0.5-1.9-2.1
	c0-38.8,0-77.6,0.1-116.4c0-1.9-0.5-2.3-2.3-2.3c-9,0.1-18.1,0-27.1,0.1c-1.4,0-1.8-0.4-1.8-1.8c0.1-8.7,0.1-17.5,0-26.2
	c0-1.4,0.3-1.7,1.7-1.7c9.2,0.1,18.3,0,27.5,0.1c1.5,0,2-0.3,2-2c-0.1-5.2-0.2-10.3,0-15.5c0.9-18.7,8.2-34.4,22.2-46.4
	c8.3-7.1,18.4-10.4,29.2-11.4c3.2-0.3,6.4-0.4,9.6-0.4c1.1,0,1.4,0.3,1.4,1.4c0,9.1,0,18.1,0,27.2c0,1.2-0.3,1.5-1.5,1.5
	c-5.6,0-11.1,0.6-16.3,2.9c-7.1,3.1-11.3,8.6-13.5,16.1c-2,6.8-2.2,13.7-2,20.7c0,1.9-0.8,4.4,0.3,5.5c1.2,1.2,3.6,0.4,5.5,0.4
	c8.4,0,16.8,0,25.2,0c1.2,0,1.6,0.3,1.6,1.6c0,8.7-0.1,17.5,0,26.2c0,1.5-0.3,2-1.9,2c-9.6-0.1-19.2,0-28.8-0.1c-1.6,0-2,0.4-2,2.1
	C402.5,254.1,402.5,273.6,402.5,293z"/>
<path class="st0" d="M857.1,207.1c4.6-2.2,8.9-4,13.5-5c21.1-4.6,39.6,0.7,55.5,15.8c0.4,0.4,0.8,0.7,1.1,1.1c0.7,0.9,1.1,0.8,1.9,0
	c3.8-4,8.1-7.5,12.8-10.3c11.3-6.7,23.5-9,36.4-7.9c24.8,2.1,50.9,23.4,53.8,56.1c0.3,2.8,0.3,5.6,0.3,8.4c0,28.8,0,57.5,0,86.3
	c0,3.4-0.4,3.9-3.7,3.9c-8.8,0-17.6,0-26.4,0c-2.8,0-3.3-0.5-3.3-3.4c0-28.7,0-57.3,0-86.1c0-4.7-0.3-9.2-2-13.6
	c-3.9-10.2-16.2-19-29.3-17.3c-11.2,1.5-22.8,13.5-23.1,26.9c-0.3,15.1-0.1,30.2-0.2,45.4c-0.1,14.9,0,29.7,0,44.6
	c0,3.1-0.4,3.5-3.4,3.5c-8.7,0-17.5,0-26.2,0c-3.4,0-3.8-0.4-3.8-3.9c0-29.7,0-59.5,0-89.2c0-11.9-6.1-20.2-15.8-24.9
	c-10.5-5.1-21.9-3.5-30.9,6.5c-5.2,5.7-7.4,12.4-7.4,20.1c0,29.3,0,58.7,0,88c0,2.9-0.5,3.4-3.3,3.4c-8.9,0-17.8,0-26.8,0
	c-2.7,0-3.3-0.6-3.3-3.3c0-49.4,0-98.8,0-148.2c0-2.8,0.6-3.4,3.4-3.4c8.9,0,17.8,0,26.8,0c2.7,0,3.2,0.5,3.2,3.3
	C857.1,204.8,857.1,205.8,857.1,207.1z M828.1,278.1C828.1,278.1,828.1,278.1,828.1,278.1c0,23.7,0,47.4-0.1,71.2
	c0,1.6,0.8,1.8,2,1.8c6.9,0,13.8-0.1,20.7,0c1.9,0,2.2-0.7,2.2-2.4c0-28.3-0.1-56.6,0-84.9c0-7.7,2-14.6,6.8-20.8
	c10.9-14.2,29.2-16.1,41.8-7.1c9.1,6.5,14.3,15.4,14.2,27.3c-0.1,28.6,0,57.1-0.1,85.7c0,1.7,0.4,2.2,2.1,2.2
	c6.8-0.1,13.7-0.1,20.5,0c1.6,0,2.2-0.2,2.2-2.1c-0.1-14.8-0.1-29.6,0-44.4c0-13.5,0.1-27,0-40.5c0-9.5,3.4-17.4,9.6-24.3
	c9.4-10.2,25.4-12.1,36.7-5.5c9.3,5.5,15.3,13.3,16.5,24.5c0.7,6.4,0.3,12.9,0.3,19.4c0,23.6,0,47.2,0,70.8c0,1.6,0.4,2.1,2,2.1
	c6.9-0.1,13.9-0.1,20.9,0c1.2,0,1.8-0.2,1.8-1.7c0-29.3,0-58.7-0.1-88c0-6.6-1.3-13-3.6-19.1c-6.5-16.8-18-28.4-34.6-34.2
	c-14.7-5.2-29.3-3.9-43.2,3.2c-6.2,3.1-11.5,7.5-16.1,12.8c-1.8,2.1-2.7,2.1-4.7,0c-2.2-2.3-4.4-4.5-6.8-6.4
	c-13.7-11.2-29.1-14.6-46.1-11.3c-5.7,1.1-11,3.4-16.1,6.1c-2.3,1.2-3.9,0.2-3.9-2.4c0-1.1-0.1-2.2,0-3.3c0.1-1.3-0.3-1.6-1.6-1.6
	c-6.8,0.1-13.7,0-20.5,0c-2.5,0-2.5,0-2.5,2.7C828.1,231.2,828.1,254.6,828.1,278.1z"/>
<path class="st0" d="M736,295.2c-17.8,0-35.6,0-53.3,0c-2.1,0-2.1,0-1.2,1.9c6.5,13.3,17,21.1,31.1,23.5c13.1,2.2,24.6-2,34.5-10.8
	c2.6-2.3,3-2.3,5.4,0.2c6.1,6.3,12.3,12.6,18.4,18.9c1.9,2,1.9,3.2-0.1,5.1c-11.9,11.5-25.7,19-42,21c-27,3.2-49.9-5.6-67.5-26.9
	c-12.6-15.2-18.4-33.2-17.8-53.4c1-33,24.8-64.9,59.2-72.2c25.5-5.4,48.3,0.9,67.4,19.3c15.1,14.6,23,32.7,23.8,54
	c0.2,5.8-0.4,11.5-1.3,17.1c-0.3,1.8-1.2,2.4-2.9,2.4c-4.1,0-8.2,0-12.3,0C763.5,295.2,749.8,295.2,736,295.2z M732.4,290.7
	c18.1,0,36.2,0,54.3,0c1.4,0,1.9-0.4,2.1-1.8c0.9-7.4,1.3-14.8,0-22.2c-3-16.8-10.2-31.2-22.5-42.7c-17.3-16.1-37.6-21.8-60.4-17.7
	c-15.8,2.8-29.1,10.6-39.8,23.1c-9.3,10.8-15.4,23.1-17.4,37.5c-2.1,14.8-0.2,29.1,6.1,42.6c8.6,18.2,22.2,30.7,40.6,37.6
	c11.9,4.5,24.2,5,36.6,2.7c13-2.3,24.2-8.6,34.1-17.5c0.8-0.7,1.1-1.1,0.2-2c-5.2-5.2-10.3-10.5-15.4-15.8c-0.9-1-1.5-0.9-2.5,0
	c-5.6,4.7-11.7,8.1-18.7,9.8c-13.5,3.2-26,0.7-37.3-7.4c-7.9-5.7-13.5-13.2-16.6-22.6c-0.4-1.2-0.3-2.3,0.7-3.1
	c0.8-0.5,1.7-0.4,2.6-0.4C696.8,290.7,714.6,290.7,732.4,290.7z"/>
<path class="st0" d="M1158.9,240.2c0,37.2,0,74.4,0,111.7c0,3-0.5,3.6-3.4,3.6c-8.8,0-17.7,0-26.6,0c-3,0-3.5-0.5-3.5-3.5
	c0-73,0-145.9,0-218.8c0-1.8,0-3.5,0-5.3c0-1.8,0.9-2.7,2.5-2.7c9.5,0,19,0,28.5,0c1.6,0,2.4,0.9,2.4,2.6c0,1.1,0,2.1,0,3.1
	C1158.9,167.4,1158.9,203.8,1158.9,240.2L1158.9,240.2z M1154.6,240.2c0-36.2,0-72.4,0-108.5c0-1.6-0.3-2.2-2-2.1
	c-6,0.1-11.9,0-17.8,0c-4.9,0-4.9,0-4.9,5c0,70.6,0,141.2,0,211.8c0,0.9,0.1,1.8,0,2.7c-0.2,1.5,0.4,1.9,1.8,1.9
	c6.6-0.1,13.3,0,19.9,0c3,0,3,0,3-3.1C1154.6,312.1,1154.6,276.1,1154.6,240.2z"/>
<path class="st0" d="M1095.6,278c0,24.7,0,49.4,0,74.1c0,2.9-0.5,3.3-3.2,3.3c-9,0-17.9,0-26.9,0c-2.6,0-3.2-0.7-3.2-3.4
	c0-49,0-98.1,0-147.1c0-0.8,0-1.6,0.1-2.3c0.2-1.3,0.9-2.2,2.3-2.2c9.6,0,19.2,0,28.8,0c1.5,0,2.2,0.9,2.2,2.4c0,1.1,0,2.2,0,3.3
	C1095.7,230.2,1095.7,254.1,1095.6,278C1095.7,278,1095.7,278,1095.6,278z M1066.7,277.9c0,23.7,0,47.4,0,71.2c0,1.7,0.5,2,2,2
	c5.6-0.1,11.2,0,16.9-0.1c1.8,0,4.1,0.9,5.3-0.3c1.3-1.3,0.5-3.7,0.5-5.6c0-45.9,0-91.7,0-137.6c0-1.8-0.4-2.4-2.3-2.4
	c-6.7,0.2-13.4,0.1-20.1,0c-1.8,0-2.4,0.3-2.4,2.3C1066.7,230.8,1066.7,254.4,1066.7,277.9z"/>
<path class="st0" d="M1079,194.6c-10.3,0.5-16.7-9.1-16.7-17.2c0-10.8,8.3-17,17.4-17.2c8.9-0.1,15.9,7.9,16,17.8
	C1095.7,188.1,1086.6,195.1,1079,194.6z M1079.2,190.1c5.8,0.4,12.3-5.4,12.1-12c-0.2-7.5-5.4-13.6-11.8-13.4
	c-7.1,0.2-13.2,5.1-12.9,13C1066.9,184.8,1072.1,190.2,1079.2,190.1z"/>
<path class="st0" d="M610.7,92.8c0.1,10.7-0.8,22.6-1.4,34.4c-0.1,1.9,0.4,2.2,2,1.9c4.9-0.7,9.4-2.7,14.1-4.5
	c8-3.1,16.5-4.4,25-5.2c9-0.8,17.8-0.1,26.5,2.4c14.4,4.2,25.9,12.9,35.3,24.6c5.6,6.9,10.5,14.3,14.9,22.1c3.6,6.3,4.7,13,3.3,20.1
	c-0.5,2.5-1.1,5.3-3.8,6.3c-2.8,1.1-4.8-0.9-6.7-2.6c-3.8-3.3-5.9-7.9-8.5-12.1c-7.4-12.1-16.8-22.1-29.3-28.7
	c-5.3-2.8-10.9-4.4-16.9-4.3c-12.6,0.1-25,1.2-37.1,4.7c-9,2.6-17.3,6.8-25,12.3c-3.7,2.6-7.3,5.4-11.3,7.5
	c-0.6,0.3-1.1,0.6-1.7,0.8c-2.3,1-2.4,0.9-2-1.6c1.6-13.1,1.4-26.3,1.5-39.4c0.1-11.3,0.8-22.5,1.9-33.8c0.9-10.1,0.9-20.3-1.3-30.4
	c-1.1-4.8-2.8-9.3-5.9-13.2c-4.7-5.7-10.8-7.7-17.7-6.1c-11.1,2.5-20.3,8.1-27.1,17.8c-5.8,8.2-11,16.8-14.8,26.2
	c-4.1,10.2-7,20.7-9.4,31.5c-3.4,14.8-5.5,29.9-8.5,44.9c-1.5,7.6-3,15.2-6.5,22.2c-0.4,0.7-0.8,1.5-1.3,2.2
	c-1.7,2.5-3.8,4.3-7.1,3.9c-3.3-0.4-5.4-2.5-6.6-5.4c-0.9-2.2-1.3-4.6-1.3-7c-0.1-9.1,1.3-18,3-27c4.5-24.8,10.6-49.1,18.3-73.1
	c5.6-17.4,14.5-32.6,27.5-45.1C542,30.1,553,24,565.8,22.4c9.7-1.2,19.2-0.2,27.2,6.6c5.5,4.7,9,10.8,11.5,17.6
	C609.8,61.2,610.9,76.4,610.7,92.8z"/>
<path class="st1" d="M828.1,278.1c0-23.5,0-46.9,0-70.4c0-2.7,0-2.7,2.5-2.7c6.8,0,13.7,0,20.5,0c1.3,0,1.7,0.4,1.6,1.6
	c-0.1,1.1,0,2.2,0,3.3c0.1,2.6,1.7,3.6,3.9,2.4c5.1-2.7,10.4-5,16.1-6.1c17-3.3,32.5,0.1,46.1,11.3c2.4,2,4.7,4.1,6.8,6.4
	c1.9,2,2.8,2,4.7,0c4.7-5.2,9.9-9.6,16.1-12.8c14-7,28.5-8.3,43.2-3.2c16.6,5.8,28.2,17.4,34.6,34.2c2.3,6.1,3.6,12.5,3.6,19.1
	c0,29.3,0,58.7,0.1,88c0,1.5-0.6,1.7-1.8,1.7c-6.9,0-13.9-0.1-20.9,0c-1.6,0-2-0.5-2-2.1c0-23.6,0.1-47.2,0-70.8
	c0-6.5,0.4-12.9-0.3-19.4c-1.3-11.2-7.2-19-16.5-24.5c-11.2-6.6-27.2-4.8-36.7,5.5c-6.3,6.8-9.6,14.8-9.6,24.3c0,13.5,0,27,0,40.5
	c0,14.8,0,29.6,0,44.4c0,1.9-0.6,2.1-2.2,2.1c-6.8-0.1-13.7-0.1-20.5,0c-1.7,0-2.1-0.5-2.1-2.2c0-28.6,0-57.1,0.1-85.7
	c0-11.9-5.1-20.8-14.2-27.3c-12.6-9-31-7.2-41.8,7.1c-4.7,6.2-6.8,13.1-6.8,20.8c0,28.3,0,56.6,0,84.9c0,1.7-0.3,2.4-2.2,2.4
	c-6.9-0.1-13.8,0-20.7,0c-1.2,0-2-0.1-2-1.8C828.1,325.6,828.1,301.8,828.1,278.1C828.1,278.1,828.1,278.1,828.1,278.1z"/>
<path class="st1" d="M732.4,290.7c-17.8,0-35.7,0-53.5,0c-0.9,0-1.8-0.2-2.6,0.4c-1.1,0.8-1.1,1.9-0.7,3.1c3.1,9.4,8.7,17,16.6,22.6
	c11.4,8.1,23.8,10.6,37.3,7.4c7-1.7,13.2-5.2,18.7-9.8c1-0.8,1.5-0.9,2.5,0c5.1,5.3,10.2,10.6,15.4,15.8c0.9,0.9,0.6,1.3-0.2,2
	c-9.9,9-21.1,15.2-34.1,17.5c-12.4,2.2-24.7,1.7-36.6-2.7c-18.4-6.9-32-19.4-40.6-37.6c-6.4-13.5-8.3-27.8-6.1-42.6
	c2-14.3,8.2-26.7,17.4-37.5c10.7-12.4,24-20.3,39.8-23.1c22.8-4.1,43.1,1.6,60.4,17.7c12.4,11.5,19.6,25.9,22.5,42.7
	c1.3,7.4,0.9,14.8,0,22.2c-0.2,1.4-0.7,1.8-2.1,1.8C768.6,290.7,750.5,290.7,732.4,290.7z M718.7,265.4c5.7,0,11.4,0,17.1,0
	c7.8,0,15.6,0,23.3,0c2.7,0,3.5-1.3,2.6-3.9c-0.4-1.1-0.8-2.2-1.3-3.2c-7.3-15.5-19.2-24.6-35.8-27.3c-21.5-3.4-41.9,11.1-48.6,30.1
	c-1.1,3.2-0.4,4.3,3,4.3C692.1,265.4,705.4,265.4,718.7,265.4z"/>
<path class="st1" d="M1154.6,240.2c0,35.9,0,71.8,0,107.7c0,3.1,0,3.1-3,3.1c-6.6,0-13.3,0-19.9,0c-1.4,0-2-0.4-1.8-1.9
	c0.1-0.9,0-1.8,0-2.7c0-70.6,0-141.2,0-211.8c0-5,0-5,4.9-5c6,0,11.9,0.1,17.8,0c1.7,0,2,0.5,2,2.1
	C1154.6,167.9,1154.6,204.1,1154.6,240.2z"/>
<path class="st1" d="M1066.7,277.9c0-23.5,0-47.1,0-70.6c0-2,0.6-2.3,2.4-2.3c6.7,0.1,13.4,0.2,20.1,0c1.9,0,2.3,0.6,2.3,2.4
	c0,45.9,0,91.7,0,137.6c0,1.9,0.9,4.4-0.5,5.6c-1.2,1.2-3.5,0.3-5.3,0.3c-5.6,0.1-11.3,0-16.9,0.1c-1.5,0-2-0.3-2-2
	C1066.7,325.3,1066.7,301.6,1066.7,277.9z"/>
<path class="st1" d="M1079.2,190.1c-7.1,0.1-12.3-5.3-12.6-12.4c-0.3-7.9,5.8-12.7,12.9-13c6.4-0.2,11.5,5.8,11.8,13.4
	C1091.5,184.7,1085,190.4,1079.2,190.1z"/>
<path class="st0" d="M718.7,265.4c-13.3,0-26.5,0-39.8,0c-3.3,0-4.1-1.2-3-4.3c6.7-19,27.1-33.6,48.6-30.1
	c16.6,2.7,28.5,11.8,35.8,27.3c0.5,1.1,0.9,2.2,1.3,3.2c0.9,2.5,0,3.9-2.6,3.9c-7.8,0-15.6,0-23.3,0
	C730,265.4,724.3,265.4,718.7,265.4z M718.6,260.9c12.1,0,24.1,0,36.2,0c1.8,0,1.8-0.5,1.1-1.9c-3.8-7.9-9.3-14.3-16.7-18.4
	c-14.8-8.3-32-7.9-45.5,3.2c-5.1,4.1-9.5,9-12.3,15.1c-0.8,1.7-0.4,2,1.3,2C694.7,260.9,706.7,260.9,718.6,260.9z"/>
</svg>
